<mxfile host="app.diagrams.net" modified="2024-06-24T22:29:24.596Z" agent="Mozilla/5.0 (Macintosh; Intel Mac OS X 10_15_7) AppleWebKit/537.36 (KHTML, like Gecko) Chrome/126.0.0.0 Safari/537.36" etag="-WERzvYeSq-TQB5J8vAS" version="24.6.2" type="github">
  <diagram name="Página-1" id="BBM7HmE_G74GKGTS61Dw">
    <mxGraphModel dx="-1157" dy="1115" grid="0" gridSize="10" guides="1" tooltips="1" connect="1" arrows="1" fold="1" page="0" pageScale="1" pageWidth="827" pageHeight="1169" math="0" shadow="0">
      <root>
        <mxCell id="0" />
        <mxCell id="1" parent="0" />
        <mxCell id="ofPMTWtSP_iq6lM-ZGT5-5" style="edgeStyle=orthogonalEdgeStyle;rounded=0;orthogonalLoop=1;jettySize=auto;html=1;flowAnimation=1;" parent="1" source="ofPMTWtSP_iq6lM-ZGT5-6" target="ofPMTWtSP_iq6lM-ZGT5-9" edge="1">
          <mxGeometry relative="1" as="geometry" />
        </mxCell>
        <mxCell id="ofPMTWtSP_iq6lM-ZGT5-6" value="&lt;b&gt;Usuários e Internet&lt;/b&gt;" style="sketch=0;outlineConnect=0;fontColor=#232F3E;gradientColor=none;fillColor=#232F3D;strokeColor=none;dashed=0;verticalLabelPosition=bottom;verticalAlign=top;align=center;html=1;fontSize=12;fontStyle=0;pointerEvents=1;shape=mxgraph.aws4.users;" parent="1" vertex="1">
          <mxGeometry x="2919" y="285" width="60" height="60" as="geometry" />
        </mxCell>
        <mxCell id="ofPMTWtSP_iq6lM-ZGT5-7" value="Conta AWS" style="points=[[0,0],[0.25,0],[0.5,0],[0.75,0],[1,0],[1,0.25],[1,0.5],[1,0.75],[1,1],[0.75,1],[0.5,1],[0.25,1],[0,1],[0,0.75],[0,0.5],[0,0.25]];outlineConnect=0;gradientColor=none;html=1;whiteSpace=wrap;fontSize=12;fontStyle=0;container=1;pointerEvents=0;collapsible=0;recursiveResize=0;shape=mxgraph.aws4.group;grIcon=mxgraph.aws4.group_account;strokeColor=#CD2264;fillColor=none;verticalAlign=top;align=left;spacingLeft=30;fontColor=#CD2264;dashed=0;" parent="1" vertex="1">
          <mxGeometry x="3108" y="141" width="1295" height="693" as="geometry" />
        </mxCell>
        <mxCell id="ofPMTWtSP_iq6lM-ZGT5-13" value="Região São Paulo (sa-east-1)" style="points=[[0,0],[0.25,0],[0.5,0],[0.75,0],[1,0],[1,0.25],[1,0.5],[1,0.75],[1,1],[0.75,1],[0.5,1],[0.25,1],[0,1],[0,0.75],[0,0.5],[0,0.25]];outlineConnect=0;gradientColor=none;html=1;whiteSpace=wrap;fontSize=12;fontStyle=0;container=1;pointerEvents=0;collapsible=0;recursiveResize=0;shape=mxgraph.aws4.group;grIcon=mxgraph.aws4.group_region;strokeColor=#00A4A6;fillColor=none;verticalAlign=top;align=left;spacingLeft=30;fontColor=#147EBA;dashed=1;" parent="ofPMTWtSP_iq6lM-ZGT5-7" vertex="1">
          <mxGeometry x="157" y="12.5" width="1077" height="634.5" as="geometry" />
        </mxCell>
        <mxCell id="ofPMTWtSP_iq6lM-ZGT5-77" value="&amp;nbsp; AZ-A" style="sketch=0;outlineConnect=0;gradientColor=none;html=1;whiteSpace=wrap;fontSize=12;fontStyle=0;shape=mxgraph.aws4.group;grIcon=mxgraph.aws4.group_availability_zone;strokeColor=#545B64;fillColor=none;verticalAlign=top;align=left;spacingLeft=30;fontColor=#545B64;dashed=1;" parent="ofPMTWtSP_iq6lM-ZGT5-13" vertex="1">
          <mxGeometry x="158.5" y="72.5" width="760" height="180" as="geometry" />
        </mxCell>
        <mxCell id="ofPMTWtSP_iq6lM-ZGT5-33" value="&lt;b&gt;EFS&lt;/b&gt;" style="sketch=0;points=[[0,0,0],[0.25,0,0],[0.5,0,0],[0.75,0,0],[1,0,0],[0,1,0],[0.25,1,0],[0.5,1,0],[0.75,1,0],[1,1,0],[0,0.25,0],[0,0.5,0],[0,0.75,0],[1,0.25,0],[1,0.5,0],[1,0.75,0]];outlineConnect=0;fontColor=#232F3E;fillColor=#7AA116;strokeColor=#ffffff;dashed=0;verticalLabelPosition=bottom;verticalAlign=top;align=center;html=1;fontSize=12;fontStyle=0;shape=mxgraph.aws4.resourceIcon;resIcon=mxgraph.aws4.efs_standard;" parent="ofPMTWtSP_iq6lM-ZGT5-13" vertex="1">
          <mxGeometry x="30" y="72.5" width="60" height="60" as="geometry" />
        </mxCell>
        <mxCell id="ofPMTWtSP_iq6lM-ZGT5-37" value="&lt;b&gt;DynamoDB&lt;/b&gt;" style="sketch=0;points=[[0,0,0],[0.25,0,0],[0.5,0,0],[0.75,0,0],[1,0,0],[0,1,0],[0.25,1,0],[0.5,1,0],[0.75,1,0],[1,1,0],[0,0.25,0],[0,0.5,0],[0,0.75,0],[1,0.25,0],[1,0.5,0],[1,0.75,0]];outlineConnect=0;fontColor=#232F3E;fillColor=#C925D1;strokeColor=#ffffff;dashed=0;verticalLabelPosition=bottom;verticalAlign=top;align=center;html=1;fontSize=12;fontStyle=0;aspect=fixed;shape=mxgraph.aws4.resourceIcon;resIcon=mxgraph.aws4.dynamodb;" parent="ofPMTWtSP_iq6lM-ZGT5-13" vertex="1">
          <mxGeometry x="994" y="259.5" width="60" height="60" as="geometry" />
        </mxCell>
        <mxCell id="ofPMTWtSP_iq6lM-ZGT5-60" value="&lt;font color=&quot;#6666ff&quot;&gt;VPC&lt;/font&gt;" style="points=[[0,0],[0.25,0],[0.5,0],[0.75,0],[1,0],[1,0.25],[1,0.5],[1,0.75],[1,1],[0.75,1],[0.5,1],[0.25,1],[0,1],[0,0.75],[0,0.5],[0,0.25]];outlineConnect=0;gradientColor=none;html=1;whiteSpace=wrap;fontSize=12;fontStyle=0;container=1;pointerEvents=0;collapsible=0;recursiveResize=0;shape=mxgraph.aws4.group;grIcon=mxgraph.aws4.group_vpc2;strokeColor=#8C4FFF;fillColor=none;verticalAlign=top;align=left;spacingLeft=30;fontColor=#AAB7B8;dashed=0;" parent="ofPMTWtSP_iq6lM-ZGT5-13" vertex="1">
          <mxGeometry x="188" y="26" width="710" height="581" as="geometry" />
        </mxCell>
        <mxCell id="ofPMTWtSP_iq6lM-ZGT5-76" value="&amp;nbsp; &amp;nbsp;AZ-B" style="sketch=0;outlineConnect=0;gradientColor=none;html=1;whiteSpace=wrap;fontSize=12;fontStyle=0;shape=mxgraph.aws4.group;grIcon=mxgraph.aws4.group_availability_zone;strokeColor=#545B64;fillColor=none;verticalAlign=top;align=left;spacingLeft=30;fontColor=#545B64;dashed=1;" parent="ofPMTWtSP_iq6lM-ZGT5-60" vertex="1">
          <mxGeometry x="-28" y="323" width="760" height="180" as="geometry" />
        </mxCell>
        <mxCell id="ofPMTWtSP_iq6lM-ZGT5-52" value="Sub-rede pública" style="points=[[0,0],[0.25,0],[0.5,0],[0.75,0],[1,0],[1,0.25],[1,0.5],[1,0.75],[1,1],[0.75,1],[0.5,1],[0.25,1],[0,1],[0,0.75],[0,0.5],[0,0.25]];outlineConnect=0;gradientColor=none;html=1;whiteSpace=wrap;fontSize=12;fontStyle=0;container=1;pointerEvents=0;collapsible=0;recursiveResize=0;shape=mxgraph.aws4.group;grIcon=mxgraph.aws4.group_security_group;grStroke=0;strokeColor=#7AA116;fillColor=#F2F6E8;verticalAlign=top;align=left;spacingLeft=30;fontColor=#248814;dashed=0;" parent="ofPMTWtSP_iq6lM-ZGT5-60" vertex="1">
          <mxGeometry x="79" y="361" width="130" height="130" as="geometry" />
        </mxCell>
        <mxCell id="ofPMTWtSP_iq6lM-ZGT5-57" value="&lt;b&gt;NAT Gateway&lt;/b&gt;" style="sketch=0;outlineConnect=0;fontColor=#232F3E;gradientColor=none;fillColor=#8C4FFF;strokeColor=none;dashed=0;verticalLabelPosition=bottom;verticalAlign=top;align=center;html=1;fontSize=12;fontStyle=0;aspect=fixed;pointerEvents=1;shape=mxgraph.aws4.nat_gateway;" parent="ofPMTWtSP_iq6lM-ZGT5-52" vertex="1">
          <mxGeometry x="35" y="39" width="60" height="60" as="geometry" />
        </mxCell>
        <mxCell id="ofPMTWtSP_iq6lM-ZGT5-66" value="Sub-rede pública" style="points=[[0,0],[0.25,0],[0.5,0],[0.75,0],[1,0],[1,0.25],[1,0.5],[1,0.75],[1,1],[0.75,1],[0.5,1],[0.25,1],[0,1],[0,0.75],[0,0.5],[0,0.25]];outlineConnect=0;gradientColor=none;html=1;whiteSpace=wrap;fontSize=12;fontStyle=0;container=1;pointerEvents=0;collapsible=0;recursiveResize=0;shape=mxgraph.aws4.group;grIcon=mxgraph.aws4.group_security_group;grStroke=0;strokeColor=#7AA116;fillColor=#F2F6E8;verticalAlign=top;align=left;spacingLeft=30;fontColor=#248814;dashed=0;" parent="ofPMTWtSP_iq6lM-ZGT5-60" vertex="1">
          <mxGeometry x="79" y="53" width="130" height="130" as="geometry" />
        </mxCell>
        <mxCell id="ofPMTWtSP_iq6lM-ZGT5-67" value="&lt;b&gt;NAT Gateway&lt;/b&gt;" style="sketch=0;outlineConnect=0;fontColor=#232F3E;gradientColor=none;fillColor=#8C4FFF;strokeColor=none;dashed=0;verticalLabelPosition=bottom;verticalAlign=top;align=center;html=1;fontSize=12;fontStyle=0;aspect=fixed;pointerEvents=1;shape=mxgraph.aws4.nat_gateway;" parent="ofPMTWtSP_iq6lM-ZGT5-66" vertex="1">
          <mxGeometry x="35" y="39" width="60" height="60" as="geometry" />
        </mxCell>
        <mxCell id="ofPMTWtSP_iq6lM-ZGT5-68" value="&amp;nbsp; &amp;nbsp; &amp;nbsp; &amp;nbsp; &amp;nbsp; &amp;nbsp; &amp;nbsp; &amp;nbsp; &amp;nbsp; &amp;nbsp; &amp;nbsp; &amp;nbsp; &amp;nbsp;Sub-rede privada" style="points=[[0,0],[0.25,0],[0.5,0],[0.75,0],[1,0],[1,0.25],[1,0.5],[1,0.75],[1,1],[0.75,1],[0.5,1],[0.25,1],[0,1],[0,0.75],[0,0.5],[0,0.25]];outlineConnect=0;gradientColor=none;html=1;whiteSpace=wrap;fontSize=12;fontStyle=0;container=1;pointerEvents=0;collapsible=0;recursiveResize=0;shape=mxgraph.aws4.group;grIcon=mxgraph.aws4.group_security_group;grStroke=0;strokeColor=#00A4A6;fillColor=#E6F6F7;verticalAlign=top;align=left;spacingLeft=30;fontColor=#147EBA;dashed=0;" parent="ofPMTWtSP_iq6lM-ZGT5-60" vertex="1">
          <mxGeometry x="299" y="53" width="314" height="131" as="geometry" />
        </mxCell>
        <mxCell id="ofPMTWtSP_iq6lM-ZGT5-69" value="" style="sketch=0;points=[[0,0,0],[0.25,0,0],[0.5,0,0],[0.75,0,0],[1,0,0],[0,1,0],[0.25,1,0],[0.5,1,0],[0.75,1,0],[1,1,0],[0,0.25,0],[0,0.5,0],[0,0.75,0],[1,0.25,0],[1,0.5,0],[1,0.75,0]];outlineConnect=0;fontColor=#232F3E;fillColor=#ED7100;strokeColor=#ffffff;dashed=0;verticalLabelPosition=bottom;verticalAlign=top;align=center;html=1;fontSize=12;fontStyle=0;aspect=fixed;shape=mxgraph.aws4.resourceIcon;resIcon=mxgraph.aws4.ec2;" parent="ofPMTWtSP_iq6lM-ZGT5-68" vertex="1">
          <mxGeometry x="45" y="39.5" width="60" height="60" as="geometry" />
        </mxCell>
        <mxCell id="ofPMTWtSP_iq6lM-ZGT5-70" value="" style="sketch=0;points=[[0,0,0],[0.25,0,0],[0.5,0,0],[0.75,0,0],[1,0,0],[0,1,0],[0.25,1,0],[0.5,1,0],[0.75,1,0],[1,1,0],[0,0.25,0],[0,0.5,0],[0,0.75,0],[1,0.25,0],[1,0.5,0],[1,0.75,0]];outlineConnect=0;fontColor=#232F3E;fillColor=#ED7100;strokeColor=#ffffff;dashed=0;verticalLabelPosition=bottom;verticalAlign=top;align=center;html=1;fontSize=12;fontStyle=0;aspect=fixed;shape=mxgraph.aws4.resourceIcon;resIcon=mxgraph.aws4.ec2;" parent="ofPMTWtSP_iq6lM-ZGT5-68" vertex="1">
          <mxGeometry x="205" y="42" width="60" height="60" as="geometry" />
        </mxCell>
        <mxCell id="ofPMTWtSP_iq6lM-ZGT5-53" value="&amp;nbsp; &amp;nbsp; &amp;nbsp; &amp;nbsp; &amp;nbsp; &amp;nbsp; &amp;nbsp; &amp;nbsp; &amp;nbsp; &amp;nbsp; &amp;nbsp; &amp;nbsp;Sub-rede privada" style="points=[[0,0],[0.25,0],[0.5,0],[0.75,0],[1,0],[1,0.25],[1,0.5],[1,0.75],[1,1],[0.75,1],[0.5,1],[0.25,1],[0,1],[0,0.75],[0,0.5],[0,0.25]];outlineConnect=0;gradientColor=none;html=1;whiteSpace=wrap;fontSize=12;fontStyle=0;container=1;pointerEvents=0;collapsible=0;recursiveResize=0;shape=mxgraph.aws4.group;grIcon=mxgraph.aws4.group_security_group;grStroke=0;strokeColor=#00A4A6;fillColor=#E6F6F7;verticalAlign=top;align=left;spacingLeft=30;fontColor=#147EBA;dashed=0;" parent="ofPMTWtSP_iq6lM-ZGT5-60" vertex="1">
          <mxGeometry x="299" y="361" width="314" height="131" as="geometry" />
        </mxCell>
        <mxCell id="ofPMTWtSP_iq6lM-ZGT5-55" value="&lt;b&gt;EC2&lt;/b&gt;" style="sketch=0;points=[[0,0,0],[0.25,0,0],[0.5,0,0],[0.75,0,0],[1,0,0],[0,1,0],[0.25,1,0],[0.5,1,0],[0.75,1,0],[1,1,0],[0,0.25,0],[0,0.5,0],[0,0.75,0],[1,0.25,0],[1,0.5,0],[1,0.75,0]];outlineConnect=0;fontColor=#232F3E;fillColor=#ED7100;strokeColor=#ffffff;dashed=0;verticalLabelPosition=bottom;verticalAlign=top;align=center;html=1;fontSize=12;fontStyle=0;aspect=fixed;shape=mxgraph.aws4.resourceIcon;resIcon=mxgraph.aws4.ec2;" parent="ofPMTWtSP_iq6lM-ZGT5-53" vertex="1">
          <mxGeometry x="45" y="39.5" width="60" height="60" as="geometry" />
        </mxCell>
        <mxCell id="ofPMTWtSP_iq6lM-ZGT5-56" value="&lt;b&gt;EC2&lt;/b&gt;" style="sketch=0;points=[[0,0,0],[0.25,0,0],[0.5,0,0],[0.75,0,0],[1,0,0],[0,1,0],[0.25,1,0],[0.5,1,0],[0.75,1,0],[1,1,0],[0,0.25,0],[0,0.5,0],[0,0.75,0],[1,0.25,0],[1,0.5,0],[1,0.75,0]];outlineConnect=0;fontColor=#232F3E;fillColor=#ED7100;strokeColor=#ffffff;dashed=0;verticalLabelPosition=bottom;verticalAlign=top;align=center;html=1;fontSize=12;fontStyle=0;aspect=fixed;shape=mxgraph.aws4.resourceIcon;resIcon=mxgraph.aws4.ec2;" parent="ofPMTWtSP_iq6lM-ZGT5-53" vertex="1">
          <mxGeometry x="205" y="42" width="60" height="60" as="geometry" />
        </mxCell>
        <mxCell id="ofPMTWtSP_iq6lM-ZGT5-81" style="edgeStyle=orthogonalEdgeStyle;rounded=0;orthogonalLoop=1;jettySize=auto;html=1;flowAnimation=1;" parent="ofPMTWtSP_iq6lM-ZGT5-60" source="ofPMTWtSP_iq6lM-ZGT5-71" target="ofPMTWtSP_iq6lM-ZGT5-69" edge="1">
          <mxGeometry relative="1" as="geometry">
            <Array as="points">
              <mxPoint x="374" y="243" />
            </Array>
          </mxGeometry>
        </mxCell>
        <mxCell id="ofPMTWtSP_iq6lM-ZGT5-71" value="" style="sketch=0;outlineConnect=0;fontColor=#232F3E;gradientColor=none;fillColor=#8C4FFF;strokeColor=none;dashed=0;verticalLabelPosition=bottom;verticalAlign=top;align=center;html=1;fontSize=12;fontStyle=0;aspect=fixed;pointerEvents=1;shape=mxgraph.aws4.application_load_balancer;" parent="ofPMTWtSP_iq6lM-ZGT5-60" vertex="1">
          <mxGeometry x="114" y="237" width="60" height="60" as="geometry" />
        </mxCell>
        <mxCell id="ofPMTWtSP_iq6lM-ZGT5-79" style="edgeStyle=orthogonalEdgeStyle;rounded=0;orthogonalLoop=1;jettySize=auto;html=1;entryX=0.5;entryY=0;entryDx=0;entryDy=0;entryPerimeter=0;flowAnimation=1;" parent="ofPMTWtSP_iq6lM-ZGT5-60" source="ofPMTWtSP_iq6lM-ZGT5-71" target="ofPMTWtSP_iq6lM-ZGT5-55" edge="1">
          <mxGeometry relative="1" as="geometry">
            <Array as="points">
              <mxPoint x="374" y="280" />
            </Array>
          </mxGeometry>
        </mxCell>
        <mxCell id="ofPMTWtSP_iq6lM-ZGT5-80" style="edgeStyle=orthogonalEdgeStyle;rounded=0;orthogonalLoop=1;jettySize=auto;html=1;entryX=0.5;entryY=0;entryDx=0;entryDy=0;entryPerimeter=0;flowAnimation=1;" parent="ofPMTWtSP_iq6lM-ZGT5-60" source="ofPMTWtSP_iq6lM-ZGT5-71" target="ofPMTWtSP_iq6lM-ZGT5-56" edge="1">
          <mxGeometry relative="1" as="geometry" />
        </mxCell>
        <mxCell id="ofPMTWtSP_iq6lM-ZGT5-82" style="edgeStyle=orthogonalEdgeStyle;rounded=0;orthogonalLoop=1;jettySize=auto;html=1;entryX=0.5;entryY=1;entryDx=0;entryDy=0;entryPerimeter=0;flowAnimation=1;" parent="ofPMTWtSP_iq6lM-ZGT5-60" source="ofPMTWtSP_iq6lM-ZGT5-71" target="ofPMTWtSP_iq6lM-ZGT5-70" edge="1">
          <mxGeometry relative="1" as="geometry">
            <Array as="points">
              <mxPoint x="534" y="256" />
            </Array>
          </mxGeometry>
        </mxCell>
        <mxCell id="ofPMTWtSP_iq6lM-ZGT5-97" value="" style="points=[[0,0],[0.25,0],[0.5,0],[0.75,0],[1,0],[1,0.25],[1,0.5],[1,0.75],[1,1],[0.75,1],[0.5,1],[0.25,1],[0,1],[0,0.75],[0,0.5],[0,0.25]];outlineConnect=0;gradientColor=none;html=1;whiteSpace=wrap;fontSize=12;fontStyle=0;container=1;pointerEvents=0;collapsible=0;recursiveResize=0;shape=mxgraph.aws4.groupCenter;grIcon=mxgraph.aws4.group_auto_scaling_group;grStroke=1;strokeColor=#D86613;fillColor=none;verticalAlign=top;align=center;fontColor=#D86613;dashed=1;spacingTop=25;" parent="ofPMTWtSP_iq6lM-ZGT5-60" vertex="1">
          <mxGeometry x="284" y="11" width="360" height="534" as="geometry" />
        </mxCell>
        <mxCell id="ofPMTWtSP_iq6lM-ZGT5-100" value="&lt;b&gt;EC2 Auto Scaling Group&lt;/b&gt;" style="text;html=1;align=center;verticalAlign=middle;resizable=0;points=[];autosize=1;strokeColor=none;fillColor=none;" parent="ofPMTWtSP_iq6lM-ZGT5-97" vertex="1">
          <mxGeometry x="189" y="2.5" width="157" height="26" as="geometry" />
        </mxCell>
        <mxCell id="kENrXrAiPvJQMG9e_fkE-3" value="&lt;b&gt;EC2&lt;/b&gt;" style="text;html=1;align=center;verticalAlign=middle;whiteSpace=wrap;rounded=0;" vertex="1" parent="ofPMTWtSP_iq6lM-ZGT5-97">
          <mxGeometry x="60" y="51.5" width="60" height="30" as="geometry" />
        </mxCell>
        <mxCell id="kENrXrAiPvJQMG9e_fkE-4" value="&lt;b&gt;EC2&lt;/b&gt;" style="text;html=1;align=center;verticalAlign=middle;whiteSpace=wrap;rounded=0;" vertex="1" parent="ofPMTWtSP_iq6lM-ZGT5-97">
          <mxGeometry x="221" y="46.5" width="60" height="30" as="geometry" />
        </mxCell>
        <mxCell id="kENrXrAiPvJQMG9e_fkE-1" value="&lt;b&gt;Application Load Balancer&lt;/b&gt;" style="text;html=1;strokeColor=none;fillColor=none;align=center;verticalAlign=middle;whiteSpace=wrap;rounded=0;" vertex="1" parent="ofPMTWtSP_iq6lM-ZGT5-60">
          <mxGeometry x="48.5" y="293" width="191" height="30" as="geometry" />
        </mxCell>
        <mxCell id="ofPMTWtSP_iq6lM-ZGT5-34" value="" style="sketch=0;points=[[0,0,0],[0.25,0,0],[0.5,0,0],[0.75,0,0],[1,0,0],[0,1,0],[0.25,1,0],[0.5,1,0],[0.75,1,0],[1,1,0],[0,0.25,0],[0,0.5,0],[0,0.75,0],[1,0.25,0],[1,0.5,0],[1,0.75,0]];outlineConnect=0;fontColor=#232F3E;fillColor=#7AA116;strokeColor=#ffffff;dashed=0;verticalLabelPosition=bottom;verticalAlign=top;align=center;html=1;fontSize=12;fontStyle=0;shape=mxgraph.aws4.resourceIcon;resIcon=mxgraph.aws4.s3;" parent="ofPMTWtSP_iq6lM-ZGT5-13" vertex="1">
          <mxGeometry x="23" y="459.5" width="60" height="60" as="geometry" />
        </mxCell>
        <mxCell id="ofPMTWtSP_iq6lM-ZGT5-35" value="&lt;b&gt;S3&lt;/b&gt;" style="text;html=1;strokeColor=none;fillColor=none;align=center;verticalAlign=middle;whiteSpace=wrap;rounded=0;" parent="ofPMTWtSP_iq6lM-ZGT5-13" vertex="1">
          <mxGeometry x="23" y="519.5" width="60" height="30" as="geometry" />
        </mxCell>
        <mxCell id="ofPMTWtSP_iq6lM-ZGT5-86" style="edgeStyle=orthogonalEdgeStyle;rounded=0;orthogonalLoop=1;jettySize=auto;html=1;flowAnimation=1;" parent="ofPMTWtSP_iq6lM-ZGT5-13" source="ofPMTWtSP_iq6lM-ZGT5-69" target="ofPMTWtSP_iq6lM-ZGT5-37" edge="1">
          <mxGeometry relative="1" as="geometry">
            <Array as="points">
              <mxPoint x="653" y="156" />
              <mxPoint x="653" y="116" />
              <mxPoint x="950" y="116" />
              <mxPoint x="950" y="268" />
            </Array>
          </mxGeometry>
        </mxCell>
        <mxCell id="ofPMTWtSP_iq6lM-ZGT5-87" style="edgeStyle=orthogonalEdgeStyle;rounded=0;orthogonalLoop=1;jettySize=auto;html=1;entryX=0;entryY=0.75;entryDx=0;entryDy=0;entryPerimeter=0;flowAnimation=1;" parent="ofPMTWtSP_iq6lM-ZGT5-13" source="ofPMTWtSP_iq6lM-ZGT5-55" target="ofPMTWtSP_iq6lM-ZGT5-37" edge="1">
          <mxGeometry relative="1" as="geometry">
            <Array as="points">
              <mxPoint x="636" y="464" />
              <mxPoint x="636" y="520" />
              <mxPoint x="948" y="520" />
              <mxPoint x="948" y="305" />
              <mxPoint x="970" y="305" />
            </Array>
          </mxGeometry>
        </mxCell>
        <mxCell id="ofPMTWtSP_iq6lM-ZGT5-88" style="edgeStyle=orthogonalEdgeStyle;rounded=0;orthogonalLoop=1;jettySize=auto;html=1;endArrow=classic;endFill=1;orthogonal=0;flowAnimation=1;snapToPoint=0;fixDash=0;arcSize=20;jumpStyle=arc;" parent="ofPMTWtSP_iq6lM-ZGT5-13" edge="1">
          <mxGeometry relative="1" as="geometry">
            <mxPoint x="751" y="158.49999999999994" as="sourcePoint" />
            <mxPoint x="994" y="283.5" as="targetPoint" />
            <Array as="points">
              <mxPoint x="866" y="159" />
              <mxPoint x="866" y="284" />
            </Array>
          </mxGeometry>
        </mxCell>
        <mxCell id="ofPMTWtSP_iq6lM-ZGT5-89" style="edgeStyle=orthogonalEdgeStyle;rounded=0;orthogonalLoop=1;jettySize=auto;html=1;jumpStyle=none;endArrow=classic;endFill=1;flowAnimation=1;" parent="ofPMTWtSP_iq6lM-ZGT5-13" edge="1">
          <mxGeometry relative="1" as="geometry">
            <mxPoint x="752" y="462.9999999999999" as="sourcePoint" />
            <mxPoint x="993" y="294" as="targetPoint" />
            <Array as="points">
              <mxPoint x="866" y="463.5" />
              <mxPoint x="866" y="293.5" />
              <mxPoint x="994" y="293.5" />
            </Array>
          </mxGeometry>
        </mxCell>
        <mxCell id="ofPMTWtSP_iq6lM-ZGT5-8" style="edgeStyle=orthogonalEdgeStyle;rounded=0;orthogonalLoop=1;jettySize=auto;html=1;flowAnimation=1;" parent="ofPMTWtSP_iq6lM-ZGT5-7" source="ofPMTWtSP_iq6lM-ZGT5-9" target="ofPMTWtSP_iq6lM-ZGT5-12" edge="1">
          <mxGeometry relative="1" as="geometry" />
        </mxCell>
        <mxCell id="ofPMTWtSP_iq6lM-ZGT5-9" value="" style="sketch=0;points=[[0,0,0],[0.25,0,0],[0.5,0,0],[0.75,0,0],[1,0,0],[0,1,0],[0.25,1,0],[0.5,1,0],[0.75,1,0],[1,1,0],[0,0.25,0],[0,0.5,0],[0,0.75,0],[1,0.25,0],[1,0.5,0],[1,0.75,0]];outlineConnect=0;fontColor=#232F3E;fillColor=#8C4FFF;strokeColor=#ffffff;dashed=0;verticalLabelPosition=bottom;verticalAlign=top;align=center;html=1;fontSize=12;fontStyle=0;aspect=fixed;shape=mxgraph.aws4.resourceIcon;resIcon=mxgraph.aws4.route_53;" parent="ofPMTWtSP_iq6lM-ZGT5-7" vertex="1">
          <mxGeometry x="70" y="144" width="60" height="60" as="geometry" />
        </mxCell>
        <mxCell id="ofPMTWtSP_iq6lM-ZGT5-42" value="&lt;b&gt;Route53&lt;/b&gt;" style="text;html=1;strokeColor=none;fillColor=none;align=center;verticalAlign=middle;whiteSpace=wrap;rounded=0;" parent="ofPMTWtSP_iq6lM-ZGT5-7" vertex="1">
          <mxGeometry x="72" y="114" width="60" height="30" as="geometry" />
        </mxCell>
        <mxCell id="ofPMTWtSP_iq6lM-ZGT5-75" style="edgeStyle=orthogonalEdgeStyle;rounded=0;orthogonalLoop=1;jettySize=auto;html=1;flowAnimation=1;" parent="ofPMTWtSP_iq6lM-ZGT5-7" source="ofPMTWtSP_iq6lM-ZGT5-12" target="ofPMTWtSP_iq6lM-ZGT5-71" edge="1">
          <mxGeometry relative="1" as="geometry" />
        </mxCell>
        <mxCell id="ofPMTWtSP_iq6lM-ZGT5-12" value="" style="sketch=0;points=[[0,0,0],[0.25,0,0],[0.5,0,0],[0.75,0,0],[1,0,0],[0,1,0],[0.25,1,0],[0.5,1,0],[0.75,1,0],[1,1,0],[0,0.25,0],[0,0.5,0],[0,0.75,0],[1,0.25,0],[1,0.5,0],[1,0.75,0]];outlineConnect=0;fontColor=#232F3E;fillColor=#8C4FFF;strokeColor=#ffffff;dashed=0;verticalLabelPosition=bottom;verticalAlign=top;align=center;html=1;fontSize=12;fontStyle=0;shape=mxgraph.aws4.resourceIcon;resIcon=mxgraph.aws4.cloudfront;aspect=fixed;" parent="ofPMTWtSP_iq6lM-ZGT5-7" vertex="1">
          <mxGeometry x="70" y="275.5" width="60" height="60" as="geometry" />
        </mxCell>
        <mxCell id="ofPMTWtSP_iq6lM-ZGT5-43" value="&lt;b&gt;CloudFront&lt;/b&gt;" style="text;html=1;strokeColor=none;fillColor=none;align=center;verticalAlign=middle;whiteSpace=wrap;rounded=0;" parent="ofPMTWtSP_iq6lM-ZGT5-7" vertex="1">
          <mxGeometry x="70" y="360.5" width="60" height="30" as="geometry" />
        </mxCell>
        <mxCell id="ofPMTWtSP_iq6lM-ZGT5-85" style="edgeStyle=orthogonalEdgeStyle;rounded=0;orthogonalLoop=1;jettySize=auto;html=1;entryX=0.5;entryY=0;entryDx=0;entryDy=0;entryPerimeter=0;flowAnimation=1;" parent="ofPMTWtSP_iq6lM-ZGT5-7" source="ofPMTWtSP_iq6lM-ZGT5-12" target="ofPMTWtSP_iq6lM-ZGT5-34" edge="1">
          <mxGeometry relative="1" as="geometry">
            <Array as="points">
              <mxPoint x="210" y="334" />
            </Array>
          </mxGeometry>
        </mxCell>
      </root>
    </mxGraphModel>
  </diagram>
</mxfile>
